<svg width="14" height="10" viewBox="0 0 14 10" fill="none" xmlns="http://www.w3.org/2000/svg">
<path d="M5.75625 9.27958C5.62499 9.27984 5.49496 9.25419 5.37363 9.20408C5.25231 9.15397 5.14207 9.08039 5.04925 8.98758L0.807252 4.74458C0.711678 4.6524 0.63542 4.54211 0.582926 4.42014C0.530433 4.29817 0.502756 4.16697 0.501509 4.0342C0.500262 3.90142 0.525471 3.76972 0.575665 3.64679C0.625859 3.52386 0.700033 3.41216 0.793858 3.3182C0.887684 3.22424 0.999282 3.14991 1.12214 3.09954C1.245 3.04918 1.37666 3.02378 1.50944 3.02484C1.64222 3.0259 1.77346 3.05339 1.8955 3.10571C2.01754 3.15803 2.12794 3.23413 2.22025 3.32958L5.75525 6.86458L12.1203 0.501577C12.3078 0.313936 12.5621 0.208468 12.8274 0.208374C13.0927 0.20828 13.3471 0.313569 13.5348 0.501077C13.7224 0.688585 13.8279 0.942953 13.828 1.20822C13.828 1.47349 13.7228 1.72794 13.5353 1.91558L6.46325 8.98758C6.37043 9.08039 6.26019 9.15397 6.13887 9.20408C6.01754 9.25419 5.88752 9.27984 5.75625 9.27958Z" fill="#2FAB73"/>
</svg>
