<svg width="34" height="34" viewBox="0 0 34 34" fill="none" xmlns="http://www.w3.org/2000/svg">
<path d="M22.2502 17.0246C22.2502 18.417 21.6971 19.7524 20.7125 20.7369C19.7279 21.7215 18.3926 22.2746 17.0002 22.2746C15.6078 22.2746 14.2725 21.7215 13.2879 20.7369C12.3033 19.7524 11.7502 18.417 11.7502 17.0246C11.7502 16.7254 11.7817 16.4331 11.8359 16.1496H10.0002V23.1444C10.0002 23.6309 10.3939 24.0246 10.8804 24.0246H23.1217C23.3549 24.0241 23.5783 23.9312 23.743 23.7662C23.9077 23.6011 24.0002 23.3775 24.0002 23.1444V16.1496H22.1644C22.2187 16.4331 22.2502 16.7254 22.2502 17.0246V17.0246ZM17.0002 20.5246C17.4599 20.5245 17.9152 20.4338 18.3399 20.2578C18.7646 20.0817 19.1504 19.8238 19.4754 19.4986C19.8004 19.1734 20.0582 18.7874 20.234 18.3627C20.4099 17.9379 20.5003 17.4826 20.5002 17.0229C20.5001 16.5631 20.4094 16.1079 20.2334 15.6832C20.0573 15.2585 19.7994 14.8726 19.4742 14.5476C19.149 14.2226 18.763 13.9648 18.3382 13.789C17.9135 13.6132 17.4582 13.5227 16.9984 13.5229C16.07 13.5231 15.1796 13.8922 14.5232 14.5489C13.8668 15.2056 13.4982 16.0961 13.4984 17.0246C13.4987 17.9531 13.8677 18.8435 14.5244 19.4998C15.1812 20.1562 16.0717 20.5248 17.0002 20.5246V20.5246ZM21.2002 13.3496H23.2984C23.4378 13.3496 23.5716 13.2944 23.6703 13.1959C23.769 13.0975 23.8247 12.964 23.8252 12.8246V10.7264C23.8252 10.5867 23.7697 10.4527 23.6709 10.3539C23.5721 10.2551 23.4382 10.1996 23.2984 10.1996H21.2002C21.0605 10.1996 20.9265 10.2551 20.8277 10.3539C20.7289 10.4527 20.6734 10.5867 20.6734 10.7264V12.8246C20.6752 13.1134 20.9114 13.3496 21.2002 13.3496V13.3496ZM17.0002 0.224609C12.5446 0.224609 8.27141 1.9946 5.1208 5.14522C1.97019 8.29583 0.200195 12.569 0.200195 17.0246C0.200195 21.4802 1.97019 25.7534 5.1208 28.904C8.27141 32.0546 12.5446 33.8246 17.0002 33.8246C19.2064 33.8246 21.391 33.3901 23.4293 32.5458C25.4676 31.7015 27.3196 30.464 28.8796 28.904C30.4396 27.344 31.6771 25.492 32.5214 23.4537C33.3657 21.4154 33.8002 19.2308 33.8002 17.0246C33.8002 14.8184 33.3657 12.6338 32.5214 10.5955C31.6771 8.55726 30.4396 6.70524 28.8796 5.14522C27.3196 3.58519 25.4676 2.34771 23.4293 1.50343C21.391 0.659154 19.2064 0.224609 17.0002 0.224609V0.224609ZM25.7502 23.8304C25.7502 24.8996 24.8752 25.7746 23.8059 25.7746H10.1944C9.1252 25.7746 8.2502 24.8996 8.2502 23.8304V10.2189C8.2502 9.14961 9.1252 8.27461 10.1944 8.27461H23.8059C24.8752 8.27461 25.7502 9.14961 25.7502 10.2189V23.8304V23.8304Z" fill="#FFBA33"/>
</svg>
