<svg width="35" height="34" viewBox="0 0 35 34" fill="none" xmlns="http://www.w3.org/2000/svg">
<path d="M17.3996 0.224609C8.12111 0.224609 0.599609 7.74611 0.599609 17.0246C0.599609 26.3031 8.12111 33.8246 17.3996 33.8246C26.6781 33.8246 34.1996 26.3031 34.1996 17.0246C34.1996 7.74611 26.6781 0.224609 17.3996 0.224609ZM24.2334 13.9866C24.2404 14.1301 24.2421 14.2736 24.2421 14.4136C24.2421 18.7886 20.9154 23.8304 14.8289 23.8304C13.0304 23.8334 11.2693 23.3168 9.75736 22.3429C10.0146 22.3744 10.2789 22.3866 10.5466 22.3866C12.0971 22.3866 13.5234 21.8599 14.6556 20.9709C13.9656 20.9573 13.297 20.7288 12.7431 20.3173C12.1891 19.9057 11.7773 19.3316 11.5651 18.6749C12.0606 18.7691 12.5711 18.7493 13.0579 18.6171C12.3089 18.4657 11.6355 18.0599 11.1516 17.4685C10.6677 16.8772 10.4033 16.1367 10.4031 15.3726V15.3324C10.8494 15.5791 11.3604 15.7296 11.9029 15.7471C11.2008 15.2797 10.7037 14.5618 10.5134 13.7401C10.3231 12.9184 10.454 12.0551 10.8791 11.3266C11.7103 12.3486 12.7468 13.1847 13.9216 13.7807C15.0964 14.3766 16.3833 14.7193 17.6989 14.7864C17.5316 14.0764 17.6036 13.3311 17.9036 12.6662C18.2037 12.0014 18.7149 11.4543 19.358 11.1101C20.001 10.7658 20.7398 10.6436 21.4594 10.7625C22.1791 10.8814 22.8393 11.2348 23.3374 11.7676C24.0779 11.6211 24.7881 11.3495 25.4374 10.9644C25.1905 11.7311 24.6738 12.3822 23.9831 12.7966C24.6391 12.7176 25.2796 12.5412 25.8836 12.2734C25.44 12.9382 24.8811 13.5184 24.2334 13.9866V13.9866Z" fill="#FFBA33"/>
</svg>
